<?xml version="1.0" encoding="UTF-8" standalone="no"?>
<svg width="256" height="256" viewBox="0 0 256 256" fill="none" xmlns="http://www.w3.org/2000/svg">
  <rect width="256" height="256" rx="32" fill="#2D2D2D"/>
  <path d="M128 64C92.7 64 64 92.7 64 128C64 163.3 92.7 192 128 192C163.3 192 192 163.3 192 128C192 92.7 163.3 64 128 64ZM128 176C101.5 176 80 154.5 80 128C80 101.5 101.5 80 128 80C154.5 80 176 101.5 176 128C176 154.5 154.5 176 128 176Z" fill="#6A46E5"/>
  <path d="M128 96C110.3 96 96 110.3 96 128C96 145.7 110.3 160 128 160C145.7 160 160 145.7 160 128C160 110.3 145.7 96 128 96ZM128 144C119.2 144 112 136.8 112 128C112 119.2 119.2 112 128 112C136.8 112 144 119.2 144 128C144 136.8 136.8 144 128 144Z" fill="#FF5E5B"/>
  <path d="M128 120C124.7 120 122 122.7 122 126C122 129.3 124.7 132 128 132C131.3 132 134 129.3 134 126C134 122.7 131.3 120 128 120Z" fill="#FFFFFF"/>
</svg>
